<svg xmlns="http://www.w3.org/2000/svg" width="159.429" height="32" viewBox="0 0 159.429 32">
  <g id="fakeLogo2" transform="translate(-2 -2)">
    <path id="Path_15" data-name="Path 15" d="M45.359,23.671a2.955,2.955,0,0,1-.488,1.825,1.851,1.851,0,0,1-1.587.638A1.674,1.674,0,0,1,41.8,25.5a3.284,3.284,0,0,1-.425-1.825V10.459A3.284,3.284,0,0,1,41.8,8.634,1.674,1.674,0,0,1,43.284,8a1.851,1.851,0,0,1,1.587.638,2.956,2.956,0,0,1,.488,1.825Z" transform="translate(2.625 0.4)" fill="#585c65"/>
    <path id="Path_16" data-name="Path 16" d="M46.244,19.5a7.292,7.292,0,0,1,.425-2.5,5.835,5.835,0,0,1,1.3-2.075,6.341,6.341,0,0,1,2.175-1.412,8.248,8.248,0,0,1,3.075-.525,8.476,8.476,0,0,1,2.988.487,6.133,6.133,0,0,1,2.187,1.363,5.688,5.688,0,0,1,1.35,2.062,7.415,7.415,0,0,1,.025,5.088,5.8,5.8,0,0,1-1.313,2.05,6.416,6.416,0,0,1-2.187,1.4,8.354,8.354,0,0,1-3.05.512,8.66,8.66,0,0,1-3.025-.487A6.375,6.375,0,0,1,48.007,24.1a5.794,5.794,0,0,1-1.325-2.05A7.317,7.317,0,0,1,46.244,19.5Zm4.163,0a8.012,8.012,0,0,0,.15,1.575,4.29,4.29,0,0,0,.475,1.3,2.661,2.661,0,0,0,.875.9,2.493,2.493,0,0,0,1.313.325,2.451,2.451,0,0,0,1.237-.3,2.4,2.4,0,0,0,.875-.837,4.011,4.011,0,0,0,.525-1.287,7.489,7.489,0,0,0,.175-1.675,7.251,7.251,0,0,0-.162-1.563,4.091,4.091,0,0,0-.488-1.313,2.518,2.518,0,0,0-.875-.9,2.333,2.333,0,0,0-1.287-.337,2.467,2.467,0,0,0-1.3.325,2.551,2.551,0,0,0-.875.887,4.09,4.09,0,0,0-.487,1.313A8.079,8.079,0,0,0,50.407,19.5Z" transform="translate(2.95 0.733)" fill="#585c65"/>
    <path id="Path_17" data-name="Path 17" d="M69.555,23.387a3.906,3.906,0,0,1-.825,1.063,4.441,4.441,0,0,1-1.062.725,5.407,5.407,0,0,1-1.238.412,7.07,7.07,0,0,1-1.337.125,5.216,5.216,0,0,1-2.1-.413,4.628,4.628,0,0,1-1.637-1.187,5.625,5.625,0,0,1-1.05-1.925,8.294,8.294,0,0,1-.375-2.6,9.156,9.156,0,0,1,.35-2.575,6.49,6.49,0,0,1,1.012-2.087,4.937,4.937,0,0,1,1.65-1.4,4.71,4.71,0,0,1,2.225-.513,5.573,5.573,0,0,1,2.525.55,4.845,4.845,0,0,1,1.913,1.8v-.325a1.749,1.749,0,0,1,.487-1.35,1.947,1.947,0,0,1,1.375-.463,2.03,2.03,0,0,1,.887.175,1.289,1.289,0,0,1,.575.5,2.173,2.173,0,0,1,.3.812,5.312,5.312,0,0,1,.1,1.087v8.375a8.854,8.854,0,0,1-.387,2.725,5,5,0,0,1-1.175,2.025,5.073,5.073,0,0,1-2.05,1.25,9.03,9.03,0,0,1-2.975.437,18.216,18.216,0,0,1-2.15-.113,8.367,8.367,0,0,1-1.6-.312,3.423,3.423,0,0,1-1.025-.525.938.938,0,0,1-.337-.75,1.651,1.651,0,0,1,.075-.5,1.3,1.3,0,0,1,.225-.425,1.26,1.26,0,0,1,.413-.288,1.8,1.8,0,0,1,.637-.1,6.434,6.434,0,0,1,.8.05q.412.05.85.1t.937.113q.5.05,1.075.05a4.961,4.961,0,0,0,1.225-.137,2.06,2.06,0,0,0,.912-.488,2.241,2.241,0,0,0,.575-.937,4.566,4.566,0,0,0,.2-1.475Zm0-3.887a9.253,9.253,0,0,0-.137-1.663,3.649,3.649,0,0,0-.438-1.275,2.153,2.153,0,0,0-.837-.825,2.614,2.614,0,0,0-1.313-.3,2.435,2.435,0,0,0-1.287.312,2.284,2.284,0,0,0-.8.863,4.108,4.108,0,0,0-.425,1.288,10.453,10.453,0,0,0-.112,1.575,5.015,5.015,0,0,0,.675,2.875,2.247,2.247,0,0,0,1.962.963,2.844,2.844,0,0,0,1.087-.225,2.273,2.273,0,0,0,.863-.687,3.354,3.354,0,0,0,.563-1.175A6.454,6.454,0,0,0,69.555,19.5Z" transform="translate(3.862 0.734)" fill="#585c65"/>
    <path id="Path_18" data-name="Path 18" d="M73.569,19.5a7.294,7.294,0,0,1,.425-2.5,5.836,5.836,0,0,1,1.3-2.075,6.341,6.341,0,0,1,2.175-1.412,8.249,8.249,0,0,1,3.075-.525,8.475,8.475,0,0,1,2.987.487,6.135,6.135,0,0,1,2.188,1.363,5.687,5.687,0,0,1,1.35,2.062,7.416,7.416,0,0,1,.025,5.088,5.8,5.8,0,0,1-1.313,2.05,6.417,6.417,0,0,1-2.188,1.4,8.354,8.354,0,0,1-3.05.512,8.659,8.659,0,0,1-3.025-.487A6.375,6.375,0,0,1,75.331,24.1a5.8,5.8,0,0,1-1.325-2.05A7.32,7.32,0,0,1,73.569,19.5Zm4.162,0a8.012,8.012,0,0,0,.15,1.575,4.287,4.287,0,0,0,.475,1.3,2.66,2.66,0,0,0,.875.9,2.493,2.493,0,0,0,1.313.325,2.451,2.451,0,0,0,1.237-.3,2.4,2.4,0,0,0,.875-.837,4.011,4.011,0,0,0,.525-1.287,7.489,7.489,0,0,0,.175-1.675,7.245,7.245,0,0,0-.163-1.563,4.091,4.091,0,0,0-.487-1.313,2.519,2.519,0,0,0-.875-.9,2.333,2.333,0,0,0-1.287-.337,2.467,2.467,0,0,0-1.3.325,2.55,2.55,0,0,0-.875.887,4.089,4.089,0,0,0-.487,1.313A8.079,8.079,0,0,0,77.731,19.5Z" transform="translate(4.771 0.733)" fill="#585c65"/>
    <path id="Path_19" data-name="Path 19" d="M91.956,9.144a1.449,1.449,0,0,1-.188.738,1.726,1.726,0,0,1-.487.525,2.257,2.257,0,0,1-.7.325,3.187,3.187,0,0,1-.8.1,3.079,3.079,0,0,1-.837-.113,2.274,2.274,0,0,1-.687-.325,1.716,1.716,0,0,1-.475-.537,1.434,1.434,0,0,1-.175-.713,1.369,1.369,0,0,1,.162-.662,1.784,1.784,0,0,1,.463-.538,2.139,2.139,0,0,1,.688-.35,2.921,2.921,0,0,1,.875-.125,2.855,2.855,0,0,1,.8.113,2.256,2.256,0,0,1,.7.325,1.587,1.587,0,0,1,.475.525A1.358,1.358,0,0,1,91.956,9.144Zm-.188,14.563a2.955,2.955,0,0,1-.487,1.825,1.852,1.852,0,0,1-1.588.638,1.673,1.673,0,0,1-1.487-.638,3.284,3.284,0,0,1-.425-1.825v-7.65a3.284,3.284,0,0,1,.425-1.825,1.674,1.674,0,0,1,1.487-.638,1.852,1.852,0,0,1,1.588.638,2.955,2.955,0,0,1,.487,1.825Z" transform="translate(5.707 0.365)" fill="#585c65"/>
    <path id="Path_20" data-name="Path 20" d="M97.147,19.474a9.2,9.2,0,0,0,.125,1.563,4.116,4.116,0,0,0,.45,1.275,2.442,2.442,0,0,0,.85.85,2.6,2.6,0,0,0,1.325.313,2.277,2.277,0,0,0,1.213-.3,2.318,2.318,0,0,0,.8-.85,4.116,4.116,0,0,0,.425-1.287,8.733,8.733,0,0,0,.138-1.6,9.984,9.984,0,0,0-.1-1.4A4.521,4.521,0,0,0,102,16.724a2.561,2.561,0,0,0-.763-.963,2.035,2.035,0,0,0-1.275-.375,3.219,3.219,0,0,0-1.337.25,2.085,2.085,0,0,0-.875.762,3.544,3.544,0,0,0-.463,1.287A10.185,10.185,0,0,0,97.147,19.474Zm-.012-3.788a4.243,4.243,0,0,1,.8-1.162,4.919,4.919,0,0,1,1.075-.838,4.86,4.86,0,0,1,1.225-.5,4.937,4.937,0,0,1,1.287-.175,4.211,4.211,0,0,1,2.076.513,4.849,4.849,0,0,1,1.574,1.4A6.349,6.349,0,0,1,106.185,17a9.01,9.01,0,0,1,.35,2.55,8.488,8.488,0,0,1-.375,2.588,6.1,6.1,0,0,1-1.038,2.025,4.765,4.765,0,0,1-1.6,1.313,4.445,4.445,0,0,1-2.062.475,4.821,4.821,0,0,1-2.5-.65,5.31,5.31,0,0,1-1.825-1.825v4.5a2.956,2.956,0,0,1-.488,1.825,1.852,1.852,0,0,1-1.588.638,1.674,1.674,0,0,1-1.487-.638,3.284,3.284,0,0,1-.425-1.825V15.687a3.284,3.284,0,0,1,.425-1.825,1.674,1.674,0,0,1,1.487-.638,1.852,1.852,0,0,1,1.588.638A2.955,2.955,0,0,1,97.134,15.687Z" transform="translate(6.077 0.734)" fill="#585c65"/>
    <path id="Path_21" data-name="Path 21" d="M110.041,16.576a.863.863,0,0,0,.425.762,4,4,0,0,0,1.175.438q.712.162,1.462.312t1.462.35a10.1,10.1,0,0,1,1.338.45,4.259,4.259,0,0,1,1.1.663,2.793,2.793,0,0,1,.75.95,2.934,2.934,0,0,1,.275,1.325,3.515,3.515,0,0,1-1.537,3.013,5.49,5.49,0,0,1-1.738.812,8.5,8.5,0,0,1-2.238.3,16.188,16.188,0,0,1-2.238-.15,9.129,9.129,0,0,1-1.913-.438,4.157,4.157,0,0,1-1.325-.737,1.374,1.374,0,0,1-.5-1.05,1.009,1.009,0,0,1,.337-.813,1.284,1.284,0,0,1,.863-.287,1.844,1.844,0,0,1,.475.075q.275.075.6.188t.688.25q.374.125.774.225a10.194,10.194,0,0,0,1.025.225,7.971,7.971,0,0,0,1.1.075,3.775,3.775,0,0,0,.687-.063,2.425,2.425,0,0,0,.6-.212,1.432,1.432,0,0,0,.45-.375,1.086,1.086,0,0,0,.212-.55,1.115,1.115,0,0,0,.062-.15.541.541,0,0,0,.026-.175.807.807,0,0,0-.325-.625,2.264,2.264,0,0,0-.887-.437q-.963-.225-1.838-.412t-1.625-.4a10.183,10.183,0,0,1-1.35-.488,3.779,3.779,0,0,1-1.025-.675,2.893,2.893,0,0,1-.65-.962,3.664,3.664,0,0,1-.225-1.363,3.034,3.034,0,0,1,.387-1.537,3.335,3.335,0,0,1,1.138-1.15,5.713,5.713,0,0,1,1.788-.7,10.277,10.277,0,0,1,2.374-.25,8.885,8.885,0,0,1,3.613.575q1.25.563,1.25,1.475a.957.957,0,0,1-.338.787,1.283,1.283,0,0,1-.812.263,1.733,1.733,0,0,1-.526-.087q-.262-.1-.637-.212a6.034,6.034,0,0,0-.9-.212,6.81,6.81,0,0,0-1.275-.1,10.077,10.077,0,0,0-1.051.05,3.353,3.353,0,0,0-.8.175,1.279,1.279,0,0,0-.512.338A.814.814,0,0,0,110.041,16.576Z" transform="translate(6.968 0.733)" fill="#585c65"/>
    <path id="Path_22" data-name="Path 22" d="M122.314,21.148a3.156,3.156,0,0,0,.15,1.025,2.209,2.209,0,0,0,.437.737,1.859,1.859,0,0,0,.637.437,2.31,2.31,0,0,0,.8.138,3.1,3.1,0,0,0,.963-.15,2.276,2.276,0,0,0,1.388-1.25,2.717,2.717,0,0,0,.212-1.112v-5.3a3.289,3.289,0,0,1,.425-1.825,1.676,1.676,0,0,1,1.488-.638,1.852,1.852,0,0,1,1.587.638,2.953,2.953,0,0,1,.487,1.825v7.65a2.953,2.953,0,0,1-.487,1.825,1.851,1.851,0,0,1-1.587.638,1.675,1.675,0,0,1-1.488-.638,3.289,3.289,0,0,1-.425-1.825,4.142,4.142,0,0,1-.688,1.05,4.256,4.256,0,0,1-.975.825,4.765,4.765,0,0,1-1.225.525,5.266,5.266,0,0,1-1.438.188,4.607,4.607,0,0,1-1.613-.287,4.012,4.012,0,0,1-1.349-.875,4.321,4.321,0,0,1-.938-1.45,5.323,5.323,0,0,1-.35-2.013V15.673a3.289,3.289,0,0,1,.425-1.825,1.674,1.674,0,0,1,1.488-.638,1.852,1.852,0,0,1,1.587.638,2.953,2.953,0,0,1,.487,1.825Z" transform="translate(7.755 0.747)" fill="#585c65"/>
    <path id="Path_23" data-name="Path 23" d="M131.8,15.687a3.28,3.28,0,0,1,.426-1.825,1.672,1.672,0,0,1,1.487-.638,1.853,1.853,0,0,1,1.588.638,2.96,2.96,0,0,1,.487,1.825,3.949,3.949,0,0,1,.675-1.087,4.566,4.566,0,0,1,.987-.85,4.818,4.818,0,0,1,1.213-.537,4.563,4.563,0,0,1,1.35-.2,4.707,4.707,0,0,1,1.275.175,3.589,3.589,0,0,1,1.175.537,3.763,3.763,0,0,1,.962.925,4.226,4.226,0,0,1,.638,1.35,5.5,5.5,0,0,1,.912-1.412,4.714,4.714,0,0,1,1.137-.925,4.62,4.62,0,0,1,1.276-.5,6.2,6.2,0,0,1,1.349-.15,4.1,4.1,0,0,1,1.525.287,3.473,3.473,0,0,1,1.287.875,4.037,4.037,0,0,1,.887,1.463,5.681,5.681,0,0,1,.337,2.05v5.65a2.953,2.953,0,0,1-.487,1.825,1.85,1.85,0,0,1-1.587.638,1.672,1.672,0,0,1-1.487-.638,3.279,3.279,0,0,1-.426-1.825V17.862a3.1,3.1,0,0,0-.149-1,2.056,2.056,0,0,0-.426-.75,1.61,1.61,0,0,0-.625-.463,1.87,1.87,0,0,0-.774-.163,2.915,2.915,0,0,0-.975.163,2.217,2.217,0,0,0-.813.5,2.562,2.562,0,0,0-.55.863,3.552,3.552,0,0,0-.2,1.263v5.063a2.96,2.96,0,0,1-.487,1.825,1.852,1.852,0,0,1-1.588.638,1.672,1.672,0,0,1-1.487-.638,3.28,3.28,0,0,1-.426-1.825V18.1a3.045,3.045,0,0,0-.537-1.95,1.737,1.737,0,0,0-1.438-.663,2.8,2.8,0,0,0-1,.175,2.236,2.236,0,0,0-.8.513,2.455,2.455,0,0,0-.538.837,3.268,3.268,0,0,0-.187,1.15v5.175a2.96,2.96,0,0,1-.487,1.825,1.852,1.852,0,0,1-1.588.638,1.672,1.672,0,0,1-1.487-.638,3.28,3.28,0,0,1-.426-1.825Z" transform="translate(8.653 0.734)" fill="#585c65"/>
    <path id="Path_24" data-name="Path 24" d="M17.4,23.8a6.4,6.4,0,1,1,6.4-6.4A6.4,6.4,0,0,1,17.4,23.8Z" transform="translate(0.6 0.6)" fill="#585c65"/>
    <path id="Path_25" data-name="Path 25" d="M5.54,19.079a2.91,2.91,0,0,0-2.414,3.862,16,16,0,0,0,29.828-.521,2.91,2.91,0,0,0-2.547-3.776c-1.865-.262-3.539,1.1-4.46,2.738a9.18,9.18,0,0,1-15.852.277C9.115,20.05,7.394,18.752,5.54,19.079Z" transform="translate(0.062 1.107)" fill="#585c65"/>
    <path id="Path_26" data-name="Path 26" d="M33.876,20A16,16,0,1,0,2,18a16.116,16.116,0,0,0,.2,2.553,4.993,4.993,0,0,1,3.121-1.943,5.181,5.181,0,0,1,3.589.7A9.181,9.181,0,1,1,27.18,18a9.3,9.3,0,0,1-.053.989,5.18,5.18,0,0,1,3.563-.822A4.993,4.993,0,0,1,33.876,20Z" fill="#585c65"/>
  </g>
</svg>
