<svg xmlns="http://www.w3.org/2000/svg" xmlns:xlink="http://www.w3.org/1999/xlink" width="654.265" height="527.283" viewBox="0 0 654.265 527.283">
  <defs>
    <clipPath id="clip-path">
      <path id="path408" d="M1030.105-446.675c-16.6,0-30.065-7.77-30.065-17.355s13.461-17.356,30.065-17.356,30.065,7.77,30.065,17.356-13.461,17.355-30.065,17.355" transform="translate(-1000.04 481.385)"/>
    </clipPath>
    <linearGradient id="linear-gradient" x1="-13.128" y1="10.947" x2="-13.126" y2="10.947" gradientUnits="objectBoundingBox">
      <stop offset="0" stop-color="#e7daf0"/>
      <stop offset="0.937" stop-color="#c6bfe5"/>
      <stop offset="1" stop-color="#c6bfe5"/>
    </linearGradient>
    <clipPath id="clip-path-2">
      <path id="path476" d="M1031.611-549.776a69.169,69.169,0,0,0-1.03,7.055.268.268,0,0,1-.506.115c-.87-1.684-2.4-5-1.97-6.79.588-2.468,3.507-.379,3.507-.379Z" transform="translate(-1028.03 550.602)"/>
    </clipPath>
    <linearGradient id="linear-gradient-2" x1="-226.622" y1="53.392" x2="-226.593" y2="53.392" gradientUnits="objectBoundingBox">
      <stop offset="0" stop-color="#181f30"/>
      <stop offset="0.398" stop-color="#213054"/>
      <stop offset="1" stop-color="#213054"/>
    </linearGradient>
    <clipPath id="clip-path-3">
      <path id="path500" d="M1638.047-633.235a335.524,335.524,0,0,0-40.624-21.643c8.967-2.993,14.818-11.273,15.734-23.565,12.44,7.785,23.322,18.34,28.016,28.079,4.126,8.538,2.6,14.6-3.126,17.129" transform="translate(-1597.423 678.444)"/>
    </clipPath>
    <linearGradient id="linear-gradient-3" x1="-27.36" y1="11.845" x2="-27.358" y2="11.845" gradientUnits="objectBoundingBox">
      <stop offset="0" stop-color="#fff"/>
      <stop offset="0.937" stop-color="#dee4f4"/>
      <stop offset="1" stop-color="#dee4f4"/>
    </linearGradient>
    <clipPath id="clip-path-4">
      <path id="path518" d="M1533.53-593.307c-19.449-12.483-42.171-23.255-67.419-31.885,19.6-9.749,44.129-22.183,45.381-23.132q.426-.125.852-.265a335.524,335.524,0,0,1,40.624,21.643,13.811,13.811,0,0,1-1.81.642c-.169.138-1.253.719-2.968,1.6.168.322.337.645.495.965,6.693,13.871,3.315,23.319-7.3,26.288-.358.287-3.357,1.859-7.851,4.143m-339.945-38.821q1.026-.5,2.1-.951l10.316-6.193c.5-.319,1.012-.363,1.535-.66l.057.228h0c6.612-4.067,15.111-6.093,25.187-6.093a97.732,97.732,0,0,1,18.428,1.916,443.029,443.029,0,0,0-57.629,11.753m181.8-13.083c-4.81-.552-9.651-1.031-14.555-1.443l12.913-1.111q.805,1.288,1.642,2.554" transform="translate(-1193.585 648.589)"/>
    </clipPath>
    <linearGradient id="linear-gradient-4" x1="-2.622" y1="9.261" x2="-2.621" y2="9.261" gradientUnits="objectBoundingBox">
      <stop offset="0" stop-color="#f8f4fb"/>
      <stop offset="0.937" stop-color="#d6d7ef"/>
      <stop offset="1" stop-color="#d6d7ef"/>
    </linearGradient>
    <clipPath id="clip-path-5">
      <path id="path536" d="M1366.946-431.482c-13.734,0-30.405-3.6-49.233-11.195-63.67-25.693-127.883-87.361-143.422-137.744-6.638-21.518-3.314-37.491,7.625-46.735l-.006-.005.047-.03a33.281,33.281,0,0,1,6.845-4.421,443.06,443.06,0,0,1,57.629-11.752,155.084,155.084,0,0,1,18.986,5.027l90.626-7.8c4.9.411,9.745.891,14.555,1.443,9.24,13.9,21.817,25.756,35.162,31.93a41.626,41.626,0,0,0,17.281,4.262,22.937,22.937,0,0,0,14.166-4.462c1.01-.291,11.545-5.447,24.122-11.71,25.248,8.63,47.97,19.4,67.419,31.885-10.9,5.538-30.563,15.266-42.539,21.048l-.916,1.356a28.342,28.342,0,0,1,4.389,16.473l-.4,8.909a28.619,28.619,0,0,1-28.489,27.224q-.647,0-1.295-.029l-.789-.036a28.288,28.288,0,0,1-7.9-1.505l-26.753,39.581c1.095,15.953-4.852,27.455-16.3,33.723v.006l-13.787,7.827a34.921,34.921,0,0,1-3.315,1.881l-.105.061-.01-.005c-6.367,3.156-14.3,4.8-23.585,4.8m52.211-74.852s-2.4.076-5.483,3.879l.116,1.05s.189,1.792,1.494,1.792a3,3,0,0,0,1.694-.715c2.863-2.092,2.179-6.007,2.179-6.007" transform="translate(-1170.881 646.137)"/>
    </clipPath>
    <linearGradient id="linear-gradient-5" x1="-2.583" y1="2.376" x2="-2.582" y2="2.376" xlink:href="#linear-gradient"/>
    <clipPath id="clip-path-6">
      <path id="path602" d="M1617.3-377.45A43.679,43.679,0,0,1,1599.362-381c-10.461-4.874-11.219-12.936-1.694-18.009,4.883-2.6,11.535-3.912,18.26-3.912a43.663,43.663,0,0,1,17.933,3.552c10.461,4.873,11.219,12.936,1.694,18.008-4.883,2.6-11.534,3.913-18.26,3.913" transform="translate(-1590.992 402.923)"/>
    </clipPath>
    <linearGradient id="linear-gradient-6" x1="-24.509" y1="12.485" x2="-24.507" y2="12.485" xlink:href="#linear-gradient"/>
    <clipPath id="clip-path-7">
      <path id="path658" d="M1477.789-271.462c-6.167,0-12.324-1.353-17.018-4.063-9.43-5.442-9.377-14.294.105-19.771,4.757-2.749,11-4.126,17.218-4.126,6.167,0,12.334,1.354,17.028,4.065,9.419,5.442,9.377,14.294-.116,19.77-4.757,2.75-11,4.127-17.218,4.126" transform="translate(-1453.731 299.422)"/>
    </clipPath>
    <clipPath id="clip-path-8">
      <path id="path664" d="M1450.7-271.461h53.2v-27.961h-53.2Z" transform="translate(-1450.703 299.422)"/>
    </clipPath>
    <linearGradient id="linear-gradient-7" x1="-23.651" y1="8.444" x2="-23.649" y2="8.444" xlink:href="#linear-gradient"/>
    <clipPath id="clip-path-9">
      <path id="path686" d="M1480.087-462.3c-1.305,0-1.494-1.792-1.494-1.792l-.116-1.05c3.084-3.8,5.483-3.879,5.483-3.879s.684,3.915-2.179,6.007a3,3,0,0,1-1.694.715" transform="translate(-1478.476 469.02)"/>
    </clipPath>
    <linearGradient id="linear-gradient-8" x1="-210.094" y1="55.075" x2="-210.075" y2="55.075" gradientUnits="objectBoundingBox">
      <stop offset="0" stop-color="#f3ecf7"/>
      <stop offset="0.937" stop-color="#e3dff2"/>
      <stop offset="1" stop-color="#e3dff2"/>
    </linearGradient>
  </defs>
  <g id="Header_Isometric" data-name="Header Isometric" transform="translate(2432.012 -385.281)">
    <path id="Path_1" data-name="Path 1" d="M1207.73,628.978l390.986-23.954,58.725,82.679,47.135,95.815-29.363,71.861s-68,54.089-70.316,54.089-146.04,44.044-146.04,44.044l-163.04,3.863-100.451-32.453-68-47.135L1080.234,798.2l11.591-76.5Z" transform="translate(-3497.746 -65)" fill="#fff"/>
    <path id="path146" d="M1264.646-297.685c-180.666,0-327.127-89.569-327.127-200.059S1083.98-697.8,1264.646-697.8q21.249,0,41.8,1.619c.042.517.074,1.039.126,1.566,1.094,12.037,5.978,24.874,13.218,36.486l-12.913,1.111c-13.776-1.159-27.879-1.759-42.234-1.759a496.811,496.811,0,0,0-67.378,4.532,97.729,97.729,0,0,0-18.428-1.916c-10.076,0-18.575,2.026-25.187,6.093h0l-.057-.228c-.522.3-1.036.341-1.534.66l-10.316,6.193q-1.08.45-2.1.951c-96.2,26.556-162.561,82.809-162.561,147.908,0,90.681,128.75,164.192,287.568,164.192s287.577-73.511,287.577-164.192c0-41.87-27.458-80.084-72.639-109.087,4.494-2.285,7.494-3.856,7.851-4.143,10.619-2.969,14-12.417,7.3-26.288-.158-.32-.326-.643-.495-.965,1.715-.882,2.8-1.463,2.968-1.6a13.812,13.812,0,0,0,1.81-.642c57.4,36.044,92.761,85.283,92.761,139.57,0,110.49-146.467,200.059-327.138,200.059" transform="translate(-3369.531 1210.25)" fill="#f8f4fa"/>
    <path id="path148" d="M1275.2-319.981c-158.817,0-287.568-73.511-287.568-164.192,0-65.1,66.361-121.352,162.561-147.908a33.278,33.278,0,0,0-6.845,4.421l-.047.029.006.005c-10.939,9.245-14.263,25.217-7.625,46.735,15.539,50.382,79.752,112.05,143.422,137.743,18.828,7.6,35.5,11.195,49.233,11.195,9.283,0,17.218-1.64,23.585-4.8l.01.005.105-.061a34.89,34.89,0,0,0,3.315-1.881l13.787-7.827v-.006c11.45-6.268,17.4-17.77,16.3-33.723l26.753-39.581a28.287,28.287,0,0,0,7.9,1.505l.789.036q.647.03,1.294.029a28.619,28.619,0,0,0,28.49-27.224l.4-8.909a28.342,28.342,0,0,0-4.389-16.473l.916-1.356c11.977-5.782,31.636-15.51,42.539-21.048,45.181,29,72.639,67.217,72.639,109.087,0,90.681-128.755,164.192-287.577,164.192m104.7-52.954c-6.22,0-12.461,1.377-17.218,4.126-9.482,5.477-9.535,14.329-.105,19.771,4.694,2.71,10.85,4.063,17.018,4.063,6.22,0,12.461-1.375,17.218-4.126,9.493-5.476,9.535-14.328.116-19.77-4.694-2.71-10.861-4.065-17.028-4.065M1227.531-414c-12.248,0-24.43,2.6-33.865,7.837-19.607,10.889-19.909,29.068-.676,40.6,10.033,6.017,23.311,9.039,36.55,9.04,12.139,0,24.244-2.539,33.793-7.643,21.954-11.727,19.891-29.3.663-40.833-9.981-5.984-23.261-9-36.465-9m-96.406-54.318c-12.028,0-23.992,2.551-33.258,7.7-19.255,10.695-19.552,28.547-.663,39.876,9.853,5.909,22.894,8.877,35.894,8.878,11.921,0,23.808-2.494,33.189-7.506,21.558-11.517,19.533-28.772.645-40.1-9.8-5.877-22.841-8.844-35.808-8.844m357.692,13.69c-6.725,0-13.376,1.31-18.26,3.912-9.525,5.073-8.767,13.135,1.694,18.009a43.68,43.68,0,0,0,17.933,3.552c6.725,0,13.376-1.31,18.26-3.913,9.524-5.072,8.767-13.135-1.694-18.008a43.662,43.662,0,0,0-17.933-3.552m-461.324-61.932c-16.6,0-30.065,7.77-30.065,17.356s13.461,17.355,30.065,17.355,30.065-7.77,30.065-17.355-13.461-17.356-30.065-17.356m199.32-122.242a155.078,155.078,0,0,0-18.986-5.027,496.821,496.821,0,0,1,67.378-4.532c14.355,0,28.458.6,42.234,1.759l-90.626,7.8" transform="translate(-3380.089 1199.834)" fill="#e7daf0"/>
    <path id="path402" d="M1557.109-776.368l-14.766-4.134s13.4-27.473,30.236-36.349l-3.61,17.565-9.03,25.381-2.831-2.463" transform="translate(-3496.951 1235.33)" fill="#968ecf"/>
    <g id="g404" transform="translate(-2382.662 683.271)">
      <g id="g406" transform="translate(0 0)" clip-path="url(#clip-path)">
        <path id="path420" d="M1030.105-446.675c-16.6,0-30.065-7.77-30.065-17.355s13.461-17.356,30.065-17.356,30.065,7.77,30.065,17.356-13.461,17.355-30.065,17.355" transform="translate(-1000.04 481.385)" fill="url(#linear-gradient)"/>
      </g>
    </g>
    <path id="path422" d="M1054.572-456.819a18.871,18.871,0,0,1,6.287-1.683c1.218,0,10.055,5.42,10.563,6.17,1.141,1.683-.529,3.531-.529,3.531h0c-.4.754-1.319,1.36-3.314,1.181L1052.9-451.5v-4.942a10.873,10.873,0,0,0,1.673-.38" transform="translate(-3393.838 1159.835)" fill="#2e4085"/>
    <path id="path424" d="M1044.425-456.808a18.847,18.847,0,0,0-6.321,1.551c-1.067.586-6.2,9.591-6.285,10.494-.189,2.023,2.166,2.838,2.166,2.838h0c.713.468,1.81.558,3.473-.559l11-10.465-2.381-4.331a10.791,10.791,0,0,1-1.65.473" transform="translate(-3389.395 1159.578)" fill="#2e4085"/>
    <path id="path426" d="M1033.733-488.074s14.922-8.6,20.209-8.014,6.49,2.864,6.96,4.335-21.815,20.535-33.324,20.4l-4.35,1.271s-26.633,1.806-24.558-2.074,7.963-8.294,11.643-10.3,23.421-5.619,23.421-5.619" transform="translate(-3382.389 1167.76)" fill="#5468bb"/>
    <path id="path428" d="M1069.012-490.726s-5.89-5.485-16.462,11.372-11.643,18.863-11.643,18.863l10.84-2.141s22.618-24.081,17.265-28.094" transform="translate(-3391.312 1166.804)" fill="#5468bb"/>
    <path id="path430" d="M1050.416-526.053c-.306,7.627-2.55,14.93,1.362,22.1.619,1.135.7,1.678,1.73,1.433.983-.233,1.99-2.244,2.444-3.037a16.227,16.227,0,0,0,2.326-8.82c-.224-3.812,5.708-3.8,5.932,0,.36,6.1-4.819,21.128-13.453,17.564-4.566-1.885-6.361-8.785-7.078-13.14-.875-5.315.591-10.772.805-16.1.153-3.8,6.085-3.822,5.933,0" transform="translate(-3391.838 1174.669)" fill="#fab6a9"/>
    <path id="path432" d="M1043.112-536.95s5.709-.981,7.227,6.6a52.351,52.351,0,0,1,1.193,9.009,1.869,1.869,0,0,1-.984,1.672l-6.633,3.589-.8-20.87" transform="translate(-3391.776 1176.371)" fill="#364a9e"/>
    <path id="path434" d="M1038.878-532.892c1.4,2.2,1.09,3.445.754,6.232a6.273,6.273,0,0,1-5.105,5.412l-27.6,5.033s-.581-10.489,5.016-13.107c3.014-1.411,7.7-3.681,11.379-5.475,5.405-2.636,12.33-3.167,15.559,1.9" transform="translate(-3384.149 1176.322)" fill="#364a9e"/>
    <path id="path436" d="M1040.28-522.614c0,.357.715,7.581,0,12.307a98.7,98.7,0,0,0-.891,10.881c0,.536,1.694,2.408,1.963,3.746,0,0-4.282,9.187-7.406,9.989s-11.024-2.094-17.538-3.342-4.945-21.9-4.945-21.9l7.672-14.358,21.146,2.675" transform="translate(-3385.074 1173.906)" fill="#364a9e"/>
    <path id="path438" d="M1033.946-484.025c-3.123.8-11.024-2.094-17.538-3.343s-4.945-21.9-4.945-21.9l3.941-7.375a1.391,1.391,0,0,1,2.612.788c-1.441,14.585,1.673,26.487,15.93,31.827" transform="translate(-3385.074 1172.239)" fill="#2e4085"/>
    <path id="path440" d="M1016.6-518.642c-3.649,8.923-6.771,16.626-5.849,26.5.287,3.086,1.066,5.395,3.42,7.429,2.6,2.243,5.364,4.141,7.776,6.617,2.665,2.735-1.525,6.932-4.195,4.193-5.323-5.463-11.556-8.052-12.718-16.3a45.893,45.893,0,0,1,.446-15.358c1.048-5.1,3.44-9.867,5.4-14.655,1.425-3.486,7.166-1.961,5.72,1.576" transform="translate(-3383.661 1173.252)" fill="#fab6a9"/>
    <path id="path442" d="M1014.172-529.216s-7.048,2.765-8.833,7.67a79.587,79.587,0,0,0-2.524,9.417,4.164,4.164,0,0,0,2.978,4.895l3.173.865a4.167,4.167,0,0,0,5.072-2.767l4.505-14.284a10.655,10.655,0,0,1-4.372-5.8" transform="translate(-3383.267 1174.733)" fill="#364a9e"/>
    <path id="path444" d="M1054.687-507.308l6.765-3.154a1.841,1.841,0,0,0,.935-1.331l2.428-14.95c.093-.57-.176-.9-.6-.736l-7.066,2.746a1.835,1.835,0,0,0-.935,1.331l-2.416,14.879a.575.575,0,0,0,.222.649l.666.565" transform="translate(-3394.024 1174.376)" fill="#c1daf3"/>
    <path id="path446" d="M1061.494-520.956s1.544,9.733,1.638,9.162l2.663-15.4-.4-.249a.421.421,0,0,0-.438-.037l-7.066,2.746a1.384,1.384,0,0,0-.579.5l4.178,3.281" transform="translate(-3394.769 1174.376)" fill="#c1daf3"/>
    <path id="path448" d="M1055.347-507.118l7.05-2.75a1.828,1.828,0,0,0,.919-1.334l2.428-14.95c.093-.571-.167-.9-.59-.735l-7.047,2.75a1.826,1.826,0,0,0-.915,1.336l-2.428,14.95c-.092.571.16.9.583.734" transform="translate(-3394.227 1174.251)" fill="#2e4085"/>
    <path id="path450" d="M1057.1-520.355l-.138.854-.082.046.011-.005-.026-.166.139-.854.062-.05v.007l.036.168" transform="translate(-3394.674 1172.903)" fill="#3f3d6b"/>
    <path id="path452" d="M1056.795-518.462l-.139.855-.081.045.011-.005-.026-.166.138-.854.062-.051v.007l.037.168" transform="translate(-3394.609 1172.504)" fill="#3f3d6b"/>
    <path id="path454" d="M1065.633-509.072h0a2.908,2.908,0,0,0,3.491-2.151l.924-3.889a2.909,2.909,0,0,0-2.151-3.492h0a2.908,2.908,0,0,0-3.491,2.151l-.924,3.889a2.909,2.909,0,0,0,2.151,3.492" transform="translate(-3396.051 1172.513)" fill="#fab6a9"/>
    <path id="path456" d="M1031.531-535.259c-.253.054-6.1,0-10.427,3.3,0,0,.485,7.852,6.78,6.024s3.647-9.329,3.647-9.329" transform="translate(-3387.14 1176.006)" fill="#fff"/>
    <path id="path458" d="M1031-532.243l4.77-10.817-8.077.971-3.619,8.232c-1.06,2.36,3.808,7.025,6.927,1.613" transform="translate(-3387.733 1177.649)" fill="#fab6a9"/>
    <path id="path460" d="M1033.5-533.85l-3.057-1.969a8.476,8.476,0,0,0,2.382,3.488l.676-1.519" transform="translate(-3389.107 1176.124)" fill="#ea765d"/>
    <path id="path462" d="M1032.546-538.4l2.192.408a6.258,6.258,0,0,0,7.273-4.992l2.071-11.132a6.256,6.256,0,0,0-4.992-7.274l-2.193-.407a6.256,6.256,0,0,0-7.272,4.992l-2.071,11.132a6.255,6.255,0,0,0,4.992,7.273" transform="translate(-3388.477 1181.618)" fill="#fab6a9"/>
    <path id="path464" d="M1033.914-554.173a10.109,10.109,0,0,0,7.609,1.874c2.933-.649,2.784-5.005.916-7.358a9.361,9.361,0,0,0-3.524-3.348c-6.666-3.958-14.918-1.486-16.419,6.58,0,0-1.893,8.909,2.259,12.6a1.455,1.455,0,0,0,2.292-.539s-1.83-3.665,2.5-5.459c1-.413,1.4-1.656,1.525-2.994a1.84,1.84,0,0,1,2.844-1.36" transform="translate(-3387.342 1182.241)" fill="#2e4085"/>
    <path id="path466" d="M1025.741-542.519a1.493,1.493,0,0,0,2.62-.25,3.583,3.583,0,0,0-.505-3.765,1.494,1.494,0,0,0-2.62.249,3.583,3.583,0,0,0,.506,3.766" transform="translate(-3387.942 1178.521)" fill="#fab6a9"/>
    <path id="path468" d="M1044.2-558.878s3.465-.806,3.914,6.523c.173,2.817.243,4.49.264,5.482a.789.789,0,0,1-1.241.661c-2.4-1.661-7.517-5.741-6.2-9.571,1.207-3.506,3.261-3.1,3.261-3.1" transform="translate(-3391.274 1180.987)" fill="#2e4085"/>
    <path id="path470" d="M1034.011-552.667a69.155,69.155,0,0,0-1.031,7.054.268.268,0,0,1-.506.115c-.87-1.684-2.4-5-1.97-6.79.588-2.468,3.507-.379,3.507-.379" transform="translate(-3389.104 1179.847)" fill="#2e4085"/>
    <g id="g472" transform="translate(-2360.569 628.636)">
      <g id="g474" transform="translate(0 0)" clip-path="url(#clip-path-2)">
        <path id="path488" d="M1031.611-549.776a69.169,69.169,0,0,0-1.03,7.055.268.268,0,0,1-.506.115c-.87-1.684-2.4-5-1.97-6.79.588-2.468,3.507-.379,3.507-.379" transform="translate(-1028.03 550.602)" fill="url(#linear-gradient-2)"/>
      </g>
    </g>
    <path id="path490" d="M999.139-467.593s2.667-5.405,12.848-1.873c11.714,4.066,31.82,8.729,31.82,8.729s1.012,6.344-.682,7.5c-6.151.209-39.513-3.262-43.986-10.078a3.9,3.9,0,0,1,0-4.281" transform="translate(-3382.375 1162.397)" fill="#5468bb"/>
    <path id="path492" d="M1467.463-719.053s25.616-97.138,74.049-125.659,75.954-5.253,75.954-5.253-23.754,3.581-41.1,27.44-34.309,36.982-46.233,44.81-27.816,50.567-27.816,50.567l-34.857,8.093" transform="translate(-3481.176 1244.19)" fill="#b4acdd"/>
    <path id="path494" d="M1527.943-793.916l.053-.069a153.314,153.314,0,0,1,12.587-14.742,112.037,112.037,0,0,1,11.924-10.767,52.766,52.766,0,0,1,13.282-7.732c9.335-3.457,18.344-8.772,26.932-13.175a101.662,101.662,0,0,1,12.524-5.591,35.572,35.572,0,0,1,11.65-2.263c.653,0,1.294.026,1.947.08a1.493,1.493,0,0,0,1.61-1.361,1.5,1.5,0,0,0-1.368-1.61c-.726-.061-1.463-.09-2.189-.09a38.479,38.479,0,0,0-12.629,2.43c-6.378,2.232-12.861,5.689-19.47,9.2-6.588,3.515-13.3,7.087-20.038,9.58a56.238,56.238,0,0,0-14.492,8.5c-13.745,10.693-24.69,25.808-24.732,25.863a1.492,1.492,0,0,0,.326,2.082,1.492,1.492,0,0,0,2.084-.331" transform="translate(-3493.349 1242.574)" fill="#cfc8e9"/>
    <g id="g496" transform="translate(-1911.132 527.727)">
      <g id="g498" transform="translate(0 0)" clip-path="url(#clip-path-3)">
        <path id="path512" d="M1638.047-633.235a335.524,335.524,0,0,0-40.624-21.643c8.967-2.993,14.818-11.273,15.734-23.565,12.44,7.785,23.322,18.34,28.016,28.079,4.126,8.538,2.6,14.6-3.126,17.129" transform="translate(-1597.423 678.444)" fill="url(#linear-gradient-3)"/>
      </g>
    </g>
    <g id="g514" transform="translate(-2229.892 551.292)">
      <g id="g516" transform="translate(0)" clip-path="url(#clip-path-4)">
        <path id="path530" d="M1533.53-593.307c-19.449-12.483-42.171-23.255-67.419-31.885,19.6-9.749,44.129-22.183,45.381-23.132q.426-.125.852-.265a335.524,335.524,0,0,1,40.624,21.643,13.811,13.811,0,0,1-1.81.642c-.169.138-1.253.719-2.968,1.6.168.322.337.645.495.965,6.693,13.871,3.315,23.319-7.3,26.288-.358.287-3.357,1.859-7.851,4.143m-339.945-38.821q1.026-.5,2.1-.951l10.316-6.193c.5-.319,1.012-.363,1.535-.66l.057.228h0c6.612-4.067,15.111-6.093,25.187-6.093a97.732,97.732,0,0,1,18.428,1.916,443.029,443.029,0,0,0-57.629,11.753m181.8-13.083c-4.81-.552-9.651-1.031-14.555-1.443l12.913-1.111q.805,1.288,1.642,2.554" transform="translate(-1193.585 648.589)" fill="url(#linear-gradient-4)"/>
      </g>
    </g>
    <g id="g532" transform="translate(-2247.813 553.228)">
      <g id="g534" transform="translate(0 0)" clip-path="url(#clip-path-5)">
        <path id="path548" d="M1366.946-431.482c-13.734,0-30.405-3.6-49.233-11.195-63.67-25.693-127.883-87.361-143.422-137.744-6.638-21.518-3.314-37.491,7.625-46.735l-.006-.005.047-.03a33.281,33.281,0,0,1,6.845-4.421,443.06,443.06,0,0,1,57.629-11.752,155.084,155.084,0,0,1,18.986,5.027l90.626-7.8c4.9.411,9.745.891,14.555,1.443,9.24,13.9,21.817,25.756,35.162,31.93a41.626,41.626,0,0,0,17.281,4.262,22.937,22.937,0,0,0,14.166-4.462c1.01-.291,11.545-5.447,24.122-11.71,25.248,8.63,47.97,19.4,67.419,31.885-10.9,5.538-30.563,15.266-42.539,21.048l-.916,1.356a28.342,28.342,0,0,1,4.389,16.473l-.4,8.909a28.619,28.619,0,0,1-28.489,27.224q-.647,0-1.295-.029l-.789-.036a28.288,28.288,0,0,1-7.9-1.505l-26.753,39.581c1.095,15.953-4.852,27.455-16.3,33.723v.006l-13.787,7.827a34.921,34.921,0,0,1-3.315,1.881l-.105.061-.01-.005c-6.367,3.156-14.3,4.8-23.585,4.8m52.211-74.852s-2.4.076-5.483,3.879l.116,1.05s.189,1.792,1.494,1.792a3,3,0,0,0,1.694-.715c2.863-2.092,2.179-6.007,2.179-6.007" transform="translate(-1170.881 646.137)" fill="url(#linear-gradient-5)"/>
      </g>
    </g>
    <path id="path550" d="M1307.631-472.021l20.228-11.476-130.407-245.5-24.822,14.781,135,242.192" transform="translate(-3419.062 1216.821)" fill="#e12e57"/>
    <path id="path552" d="M1503.221-758.323c1.389-1.055,45.255-23.051,46.991-23.557,5.02-3.818,12.535-4.173,21.259-.136,16.986,7.859,32.131,29.34,33.815,47.982,1.063,11.708-3.431,19.509-11.135,21.745-1.389,1.055-45.255,23.052-46.991,23.557-5.02,3.818-12.534,4.173-21.259.136-16.986-7.858-32.131-29.34-33.825-47.98-1.052-11.709,3.442-19.509,11.145-21.747" transform="translate(-3486.329 1228.598)" fill="#ef277b"/>
    <path id="path554" d="M1496.594-755.707c1.389-1.055,45.244-23.052,46.991-23.558,5.02-3.818,12.524-4.173,21.259-.135,16.986,7.857,32.131,29.34,33.815,47.98,1.063,11.709-3.441,19.509-11.145,21.746-1.379,1.055-45.244,23.051-46.981,23.557-5.02,3.818-12.534,4.173-21.259.136-17-7.859-32.131-29.341-33.825-47.982-1.063-11.709,3.441-19.509,11.145-21.745" transform="translate(-3484.932 1228.047)" fill="#d91f8a"/>
    <path id="path556" d="M1532.97-698.793a29.935,29.935,0,0,0-28.552-31.259l-7.315-.332a29.932,29.932,0,0,0-31.257,28.547l-5.778,127.287a29.942,29.942,0,0,0,28.553,31.259l7.314.331a29.925,29.925,0,0,0,31.257-28.546l5.778-127.288" transform="translate(-3479.611 1217.12)" fill="#2e4085"/>
    <path id="path558" d="M1421.5-745.009c2.052-1.56,66.924-34.1,69.5-34.844,7.42-5.647,18.533-6.172,31.447-.2,25.132,11.623,47.528,43.4,50.022,70.97,1.568,17.32-5.083,28.856-16.481,32.166-2.052,1.56-66.924,34.1-69.5,34.843-7.42,5.648-18.533,6.173-31.447.2-25.132-11.622-47.528-43.4-50.022-70.97-1.568-17.319,5.083-28.856,16.481-32.164" transform="translate(-3467.972 1228.475)" fill="#e93ca7"/>
    <path id="path560" d="M1555.834-745.511c7.588,11.733,12.724,24.872,13.84,37.246,1.579,17.32-5.094,29.012-16.5,32.56-2.052,1.6-67.009,35.522-69.587,36.324-7.43,5.809-18.554,6.561-31.489.841-18.228-8.068-31.92-20.355-40.74-40.532l144.478-66.438" transform="translate(-3469.355 1220.3)" fill="#d91f8a"/>
    <path id="path562" d="M1377.064-735.367l-182.884,13.074,128.988,240.449,134.543-157.678c6.5-47.871-40.245-106.715-80.648-95.846" transform="translate(-3423.602 1218.44)" fill="#e1eef9"/>
    <path id="path564" d="M1260.106-617.958l72.269,128.627S1472.043-645.118,1471.6-648.98c-2.315-20.24-10.156-38.558-22.522-52.9l-188.973,83.924" transform="translate(-3437.491 1211.109)" fill="#d5dff3"/>
    <path id="path566" d="M1165.815-669.192c-2.841,62.62,37.671,140.759,90.482,174.528s97.923,10.383,100.764-52.237-37.667-140.758-90.481-174.528-97.926-10.382-100.765,52.236" transform="translate(-3417.597 1218.484)" fill="#e93ca7"/>
    <path id="path568" d="M1142.085-655.655c-2.839,62.619,37.671,140.759,90.483,174.528s97.93,10.383,100.761-52.236-37.667-140.759-90.478-174.528-97.927-10.383-100.766,52.236" transform="translate(-3412.597 1215.632)" fill="#cd1b89"/>
    <path id="path570" d="M1160.288-656.075c-2.634,58.067,34.932,130.527,83.905,161.842s90.8,9.628,93.447-48.44S1302.7-673.2,1253.73-704.516s-90.809-9.628-93.442,48.44" transform="translate(-3416.434 1214.684)" fill="#fff"/>
    <path id="path572" d="M1307.694-647.6c-18.2-30.328-42.8-49.642-53.863-56.714-48.974-31.315-90.809-9.628-93.442,48.44-.755,16.622-.092,35.339,14.7,74.082,20.867-65.438,78.094-77.631,132.608-65.809" transform="translate(-3416.441 1214.642)" fill="#e1eef9"/>
    <path id="path574" d="M1344.47-568.232c1.147-25.291-16.7-56.918-39.873-70.64-11.119-6.586-21.434-7.837-29.29-4.576l-.006-.009-.34.158c-.347.151-.692.31-1.029.48l-28.915,13.467a21,21,0,0,0-3.31,1.542l-.008,0h0c-7.113,4.131-11.712,12.478-12.249,24.308-1.146,25.291,16.7,56.918,39.87,70.64,10.911,6.462,21.052,7.8,28.85,4.764v0l.057-.027a20.831,20.831,0,0,0,2.493-1.178l26.616-12.572a21.125,21.125,0,0,0,6.367-3.008l.01-.007v0c6.262-4.395,10.251-12.368,10.756-23.344" transform="translate(-3431.021 1199.163)" fill="#d4ecf6"/>
    <path id="path576" d="M1294.3-674.237c-.321.154-48.135,24.633-48.135,24.633-1.065.427-2.089,1.34-3.059,1.34h.446v.392c-8.42,4.155-11.078,12.537-11.615,24.367-1.147,25.291,15.231,56.86,36.562,70.5,10.044,6.423,17.15,7.728,26.622,4.668v0l-.076-.025a17.921,17.921,0,0,0,2.24-1.186s49.027-26.069,50.805-27.422a211.467,211.467,0,0,0-53.79-97.269" transform="translate(-3431.544 1205.285)" fill="#5468bb"/>
    <path id="path578" d="M1286.654-598.853c11.622,20.654,12.42,42.251,1.782,48.236s-28.682-5.905-40.3-26.56-12.42-42.25-1.783-48.236,28.683,5.905,40.306,26.56" transform="translate(-3433.016 1195.325)" fill="#627ac6"/>
    <path id="path580" d="M1362.336-576.968s-3.21-24.821-22.143-56.177c-9.324-15.453-16.942-26.438-31.615-41.092l-8.912,4.595s39.475,38.871,50.915,99.191l11.756-6.517" transform="translate(-3445.825 1205.285)" fill="#495cb3"/>
    <path id="path582" d="M1413.235-730.037l-111.259,8.45,32.231,26.554,92.088-20.916-13.061-14.088" transform="translate(-3446.312 1217.04)" fill="#fff"/>
    <path id="path584" d="M1478.613-737.582l-14.724-9.325,59.063-29.962,13.682,8.735-58.021,30.551" transform="translate(-3480.423 1226.906)" fill="#f390cd"/>
    <path id="path586" d="M1632.468-498.889l8.2,32.954a2.745,2.745,0,0,0,3.326,2,2.751,2.751,0,0,0,2-3.32l-8.2-32.954a2.745,2.745,0,0,0-3.326-2,2.752,2.752,0,0,0-2,3.32" transform="translate(-3515.921 1169.061)" fill="#fab6a9"/>
    <path id="path588" d="M1557.708-519.144a49.287,49.287,0,0,0,3.221,8.889,25.032,25.032,0,0,0,4.252,6.445,12.428,12.428,0,0,0,3.157,2.422,8.783,8.783,0,0,0,4.073,1.027,9.911,9.911,0,0,0,5.273-1.632,20.519,20.519,0,0,0,5.041-4.707,2.741,2.741,0,0,0-.421-3.852,2.74,2.74,0,0,0-3.852.426,15.274,15.274,0,0,1-3.662,3.48,4.492,4.492,0,0,1-2.379.8,3.287,3.287,0,0,1-1.547-.406,9.448,9.448,0,0,1-3.052-2.986,32.376,32.376,0,0,1-3.557-7.273c-.41-1.141-.726-2.141-.926-2.847-.105-.353-.179-.631-.231-.819l-.053-.208-.01-.049v-.008a2.745,2.745,0,0,0-3.315-2.015,2.734,2.734,0,0,0-2.01,3.31" transform="translate(-3500.171 1173.324)" fill="#fab6a9"/>
    <path id="path590" d="M1624.764-541.073c3.168,1.532,6.6,2.722,9.167,5.4,1.947,2.023,3.115,4.628,4.641,6.982a14.977,14.977,0,0,0,3.063,3.539,9.023,9.023,0,0,1,3.357,6.463c.105,2.544.063,6.461-.01,9.891-.095,4.542-5,6.208-8.788,2.855a6.121,6.121,0,0,1-.737-.768c-1.757-2.238-2.347-1.642-4.1-3.8-3.1-3.814-9.156-6.922-13.355-7.042-3.683-.105-7.336-1.888-10.84-4.086a18.6,18.6,0,0,1-6.662-8.356c-1.095-3.269-3.2-6.808-3.179-9.992.021-3.1,3.347-6.395,3.62-9.416.126-1.44,6.336-4.7,8.514-4.521.695.057-5.767,2.486-5.083,2.829l1.253.633c3.589,1.8,9.083-1.9,12.619-.435,3.031,1.25,3.442,8.324,6.525,9.817" transform="translate(-3508.532 1179.938)" fill="#2e4085"/>
    <path id="path592" d="M1565.691-520.094l-7.02,2.557a1.953,1.953,0,0,1-2.494-1.159l-5.1-14.017a1.953,1.953,0,0,1,1.158-2.486l7.03-2.557a1.945,1.945,0,0,1,2.484,1.159l5.1,14.016a1.945,1.945,0,0,1-1.158,2.487" transform="translate(-3498.766 1176.557)" fill="#32326b"/>
    <path id="path594" d="M1565.814-521.97l-7.9,2.881h0l-4.767-13.094,7.9-2.881,4.768,13.094h0" transform="translate(-3499.226 1175.965)" fill="#e1f5fd"/>
    <path id="path596" d="M1556.126-515.815h0a1.407,1.407,0,0,1-1.8-.838l-1.673-4.595a1.4,1.4,0,0,1,.832-1.8,1.407,1.407,0,0,1,1.8.838l1.673,4.594a1.412,1.412,0,0,1-.831,1.8" transform="translate(-3499.105 1173.451)" fill="#fab6a9"/>
    <g id="g598" transform="translate(-1916.208 745.203)">
      <g id="g600" transform="translate(0 0)" clip-path="url(#clip-path-6)">
        <path id="path614" d="M1617.3-377.45A43.679,43.679,0,0,1,1599.362-381c-10.461-4.874-11.219-12.936-1.694-18.009,4.883-2.6,11.535-3.912,18.26-3.912a43.663,43.663,0,0,1,17.933,3.552c10.461,4.873,11.219,12.936,1.694,18.008-4.883,2.6-11.534,3.913-18.26,3.913" transform="translate(-1590.992 402.923)" fill="url(#linear-gradient-6)"/>
      </g>
    </g>
    <path id="path616" d="M1603.277-500.194a4.506,4.506,0,0,0,1.421.538c1.179.165,2.452-.548,3.62-1.238a.941.941,0,0,0,.305-.236.866.866,0,0,0,.063-.754c-.421-1.442-1.105-1.406-2.1-2.236-.442-.374-.842-.817-1.284-1.2a13.492,13.492,0,0,0-2.273-1.481c-.958-.535-4.452-2.367-5.167.254a2.709,2.709,0,0,0,.347,2.613,7.249,7.249,0,0,0,1.926,1.924,28.5,28.5,0,0,0,3.147,1.814" transform="translate(-3508.61 1170.246)" fill="#f89a74"/>
    <path id="path618" d="M1609.035-502.6a11.01,11.01,0,0,0-1.01-2.346,3.711,3.711,0,0,0-1.737-1.425c-1.379-.55-3.673-1.334-4.441-.8-.979.683.021,1.829.642,2.533a12.659,12.659,0,0,0,4.947,3.011.629.629,0,0,0,.684-.114c.073.149-.547-.253-.484-.1.368.955,1.768.185,1.4-.76" transform="translate(-3509.4 1170.127)" fill="#f89a74"/>
    <path id="path620" d="M1609.718-501.937l1.631,1.706-3.157,3.7-1.863-1.893,3.389-3.515" transform="translate(-3510.431 1168.986)" fill="#d4ecf6"/>
    <path id="path622" d="M1595.634-391.765l7.367-5.618,4.294-.734c1.421,5.595.779,4.917-.852,6.349l-6.409,3.995c-3.378,1.615-4.452,1.819-6.42.958-1.189-1.264-.063-2.909,2.021-4.951" transform="translate(-3507.65 1147.114)" fill="#2e4085"/>
    <path id="path624" d="M1640.6-398.429l1-9.215,2.421-3.625c5.041,2.818,4.1,2.819,4.02,4.989l-1.516,7.4c-1.147,3.564-1.736,4.481-3.715,5.317-1.737-.006-2.158-1.955-2.21-4.87" transform="translate(-3517.65 1149.884)" fill="#2e4085"/>
    <path id="path626" d="M1597.569-525.073a109.092,109.092,0,0,1-11.04,18.782c-2.084,2.8-7.841-1.429-5.746-4.235a101.163,101.163,0,0,0,10.314-17.516c1.484-3.147,7.956-.2,6.473,2.969" transform="translate(-3504.954 1174.769)" fill="#e93ca7"/>
    <path id="path628" d="M1597.719-471.513a325.553,325.553,0,0,0,4.241,59.432c.758,4.507,7.62,2.6,6.862-1.891a315.147,315.147,0,0,1-3.989-57.541c.063-4.58-7.051-4.582-7.114,0" transform="translate(-3508.609 1163.3)" fill="#fab6a9"/>
    <path id="path630" d="M1616.277-462.213c1.389,9.262.495,19.256,3.157,28.285,2.568,8.727,9.546,13.867,17.5,17.531,4.136,1.9,7.757-4.229,3.6-6.144-7.409-3.412-13.271-7.578-14.871-15.943-1.6-8.393-1.252-17.151-2.526-25.621-.684-4.513-7.546-2.6-6.862,1.892" transform="translate(-3512.517 1161.558)" fill="#fab6a9"/>
    <path id="path632" d="M1621.013-473.2c-.716,10-7.114,11.008-13.576,7.282s-10.04-12.21-10.04-19.664c0,0,3.589-11.057,10.04-7.329s14.418,8.1,13.576,19.711" transform="translate(-3508.549 1167.246)" fill="#5468bb"/>
    <path id="path634" d="M1598.8-520.08l-2.368,6.737s.747,19.7.989,21.565c0,0,8.156,6.028,18.618-.2l6.662-19.574-23.9-8.525" transform="translate(-3508.347 1172.808)" fill="#e93ca7"/>
    <path id="path636" d="M1622.369-510.435c.589-.358,2.663.184,2.663.184.4-3.49,3.884-4.491-1.084-10.122-.758-.853-12.408-6.491-18.649-7.62-3.031-.546-9.1-2.924-10.324-.1-.716,1.65,1.673,8.975,1.673,8.976-.295,6.408,2.547-2.006,3,1.532l-.052-.257s.779,5.977,1.358,10.6c.368,2.887.621,4.976.652,5.268v.036l10.819,8.535,5.7-10.286,4.241-6.749" transform="translate(-3508.01 1174.782)" fill="#e93ca7"/>
    <path id="path638" d="M1608.64-527.719s-5.41,5.587-.716,9.549,12.692-4.892,12.692-4.892c-4.2-2.627-8.23-4.41-11.977-4.657" transform="translate(-3510.364 1174.417)" fill="#fab6a9"/>
    <path id="path640" d="M1596.37-483.421l-3.841,33.264a2.318,2.318,0,0,0,.326,1.287c1.474,2.47,8.925,8.934,25.2,5.3,1.873-.419,3.841-.558,3.831-2.113L1620.008-474l-10.3,1.741-13.334-11.163" transform="translate(-3507.523 1165.085)" fill="#5468bb"/>
    <path id="path642" d="M1611.761-526.294l-2.578-9.963,6.241,1.976,2.1,8.136c.442,1.327-3.894,4.939-5.767-.149" transform="translate(-3511.032 1176.216)" fill="#fab6a9"/>
    <path id="path644" d="M1607.69-532.891l-1.915-.288a5.457,5.457,0,0,1-4.568-6.187l1.474-9.763a5.452,5.452,0,0,1,6.188-4.567l1.915.289a5.456,5.456,0,0,1,4.568,6.186l-1.473,9.763a5.452,5.452,0,0,1-6.188,4.567" transform="translate(-3509.339 1179.903)" fill="#fab6a9"/>
    <path id="path646" d="M1610.316-527.2a8.59,8.59,0,0,0,3.852-.446,7.158,7.158,0,0,1-3.7,2.072l-.147-1.626" transform="translate(-3511.271 1174.402)" fill="#ea765d"/>
    <path id="path648" d="M1609.117-551.131s2.757,7.576,5.325,9.615l-.516,1.524a5.322,5.322,0,0,0,.558,4.592l.358.563s13.355-10.2,2.642-18.948c-7.241-5.919-16.755-.892-15.671,6.409l7.3-3.755" transform="translate(-3509.462 1180.458)" fill="#2e4085"/>
    <path id="path650" d="M1618.033-533.7a1.3,1.3,0,0,1-2.084-.955,3.11,3.11,0,0,1,1.484-2.957,1.3,1.3,0,0,1,2.084.953,3.111,3.111,0,0,1-1.484,2.958" transform="translate(-3512.452 1176.552)" fill="#fab6a9"/>
    <path id="path652" d="M1630.386-517.842c5.125,6.967,6.9,15.109,8.272,23.261.61,3.674-6.378,5.009-7,1.323-1.284-7.692-2.894-15.219-7.725-21.795-2.284-3.106,4.189-5.864,6.451-2.789" transform="translate(-3514.039 1172.619)" fill="#e93ca7"/>
    <g id="g654" transform="translate(-2024.551 826.899)">
      <g id="g656" transform="translate(0 0)" clip-path="url(#clip-path-7)">
        <g id="g662" transform="translate(-2.39)" clip-path="url(#clip-path-8)">
          <path id="path676" d="M1474.884-271.471v-.105h-1.263v-.105h-.947v-.105h-.737v-.105h-.737V-272h-.631v-.105h-.526v-.105h-.526v-.105h-.526v-.105h-.421v-.105h-.421v-.105h-.421v-.105h-.421v-.105h-.316v-.105h-.421v-.105h-.315v-.105h-.316v-.105h-.316v-.105h-.316v-.105h-.316v-.105h-.315v-.105h-.211v-.105h-.316v-.105h-.211V-274h-.21v-.105h-.316v-.105h-.21v-.105h-.316v-.105h-.21v-.105h-.211v-.105h-.21v-.105h-.211v-.105h-.211v-.105h-.21v-.105h-.211v-.105h-.21v-.105h-.21v-.105h-.211v-.105h-.105v-.105h-.211v-.105h-.211v-.105h-.105v-.105h-.211V-276h-.105v-.105h-.21v-.105h-.105v-.105h-.211v-.105h-.105v-.105h-.21v-.105h-.105v-.105h-.105v-.105h-.21v-.105h-.105v-.105h-.105v-.105h-.105v-.105h-.21v-.105h-.105v-.105h-.105v-.105h-.105v-.105h-.21v-.105h-.105v-.105h-.105V-278h-.105v-.105h-.105v-.105h-.1v-.105h-.105v-.105h-.105v-.105h-.105v-.105h-.105v-.105h-.105v-.105h-.105v-.105h-.105v-.21h-.105v-.105h-.105v-.105h-.1v-.105h-.105v-.21h-.105v-.105h-.105v-.105h-.105V-280h-.105v-.21h-.105v-.21h-.105v-.105h-.106v-.211h-.1v-.21h-.105v-.105h-.105v-.21h-.105v-.21h-.105v-.21h-.105V-282h-.105v-.21h-.105v-.211h-.105v-.316h-.105v-.421h-.1v-.421h-.105V-284h-.105v-2.631h.105v-.526h.105v-.421h.1v-.421h.105v-.316h.105v-.211h.105v-.21h.105v-.316h.105v-.211h.105v-.21h.105v-.211h.105v-.21h.105v-.105h.1v-.211h.106v-.105h.105v-.21h.105v-.21h.105v-.105h.105v-.105h.105v-.105h.105v-.21h.105v-.105h.1v-.105h.105v-.105h.105v-.21h.105v-.105h.105v-.105h.105v-.105h.105v-.105h.105v-.105h.105v-.105h.105v-.105h.1v-.105h.105v-.105h.105v-.105h.105v-.105h.105v-.105h.105v-.105h.105v-.105h.21v-.105h.105v-.105h.105v-.105h.105v-.105h.211v-.105h.105v-.105h.105v-.105h.211v-.105h.105v-.105h.105v-.105h.21v-.105h.105v-.105h.21v-.105h.105v-.105h.21v-.105h.105v-.105h.21v-.105h.105v-.105h.211v-.105h.21v-.105h.105v-.105h.211v-.105h.21v-.105h.21v-.105h.211v-.105h.21v-.105h.211v-.105h.21v-.105h.211v-.105h.21v-.105h.21v-.105h.316v-.105h.21v-.105h.211v-.105h.316v-.105h.211v-.105h.21v-.105h.316v-.105h.316v-.105h.316v-.105h.316v-.105h.316v-.105h.211v-.105h.315v-.105h.421v-.105h.421v-.105h.316v-.105h.421v-.105h.421v-.105h.421v-.105h.526v-.105h.526v-.105h.421v-.105h.526v-.105h.736v-.105h.737v-.105h.737v-.105h1.158v-.105h1.263v-.105h4.946v.105h1.263v.105h1.158v.105h.737v.105h.737v.105h.631v.105h.526v.105h.526v.105h.526v.105h.526v.105h.421v.105h.421v.105h.316v.105h.421v.105h.421v.105h.316v.105h.316v.105h.316v.105h.316v.105h.316v.105h.316v.105h.315v.105h.211v.105h.315v.105h.211v.105h.21v.105h.316v.105h.21v.105h.211v.105h.316v.105h.211v.105h.21v.105h.21v.105h.211v.105h.21v.105h.211v.105h.105v.105h.21v.105h.211v.105h.21v.105h.1v.105h.211v.105h.105v.105h.21v.105h.105v.105h.21v.105h.105v.105h.21v.105h.211v.105h.105v.105h.105v.105h.105v.105h.211v.105h.1v.105h.105v.105h.105v.105h.21v.105h.105v.105h.105v.105h.105v.105h.106v.105h.105v.105h.105v.105h.105v.105h.211v.105h.105v.105h.105v.105h.105v.105h.105v.105h.105v.105h.1v.211h.105v.105h.105v.105h.105v.105h.105v.21h.105v.105h.105v.105h.1v.105h.105v.21h.105v.105h.105v.21h.105v.105h.105v.21h.105v.211h.105v.105h.105v.21h.105v.211h.105v.21h.105v.316h.105v.21h.105v.21h.105v.316h.105v.421h.105v.421h.105v.421h.105v1.158h.1v.526h-.1v1.158h-.105v.421h-.105v.421h-.105v.421h-.105v.211h-.105v.316h-.105v.21h-.105v.21h-.105v.316h-.105v.211h-.105v.105h-.105v.21h-.105v.21h-.105v.105h-.105v.211h-.105v.21h-.105v.105h-.105v.21h-.105v.105h-.1v.105h-.105v.105h-.105v.105h-.105v.211h-.105v.105h-.105v.105h-.105v.105h-.1v.21h-.105v.105h-.211v.105h-.105v.105h-.105v.105h-.105v.105h-.105v.105h-.105v.105h-.105V-278h-.105v.105h-.106v.105h-.105v.105h-.105v.105h-.105v.105h-.21v.105h-.105v.105h-.105v.105h-.1v.105h-.211v.105h-.105v.105h-.105v.105h-.21v.105h-.106v.105h-.105v.105h-.21v.105h-.105v.105h-.211v.105h-.21V-276h-.105v.105h-.211v.105h-.1v.105h-.21v.105h-.211v.105h-.105v.105h-.21v.105h-.211v.105h-.21v.105h-.211v.105h-.21v.105h-.21v.105h-.211v.105h-.21v.105h-.211v.105h-.316v.105h-.211v.105h-.21v.105h-.316V-274h-.21v.105h-.21v.105h-.316v.105h-.316v.105h-.316v.105h-.316v.105h-.21v.105h-.316v.105h-.316v.105h-.316v.105h-.421v.105h-.421v.105h-.421v.105h-.316v.105h-.421v.105h-.526v.105h-.526v.105h-.526v.105h-.526V-272h-.631v.105h-.737v.105h-.737v.105h-.947v.105h-1.263v.105" transform="translate(-1451.341 299.431)" fill="url(#linear-gradient-7)"/>
        </g>
      </g>
    </g>
    <path id="path678" d="M1463.956-280.719l9.693-3.281,2.915,2.33c1.536,1.994,2.189,3.15,1.421,5.121-.642,1.656-3.526,2.347-5.157,2.5l-7.515-.106c-5.451.129-6.125-1.737-6.483-3.387-.253-1.943,1.873-2.693,5.125-3.173" transform="translate(-3479.353 1123.073)" fill="#2e4085"/>
    <path id="path680" d="M1491.15-297.2l10.03,2.046,1.347,3.481c.326,2.5.305,3.824-1.347,5.14-1.389,1.107-4.231.253-5.715-.438l-6.441-3.875c-4.778-2.632-4.42-4.582-3.9-6.191.768-1.8,2.978-1.385,6.03-.163" transform="translate(-3484.835 1126.076)" fill="#2e4085"/>
    <g id="g682" transform="translate(-2005.019 693.031)">
      <g id="g684" transform="translate(0 0)" clip-path="url(#clip-path-9)">
        <path id="path698" d="M1480.087-462.3c-1.305,0-1.494-1.792-1.494-1.792l-.116-1.05c3.084-3.8,5.483-3.879,5.483-3.879s.684,3.915-2.179,6.007a3,3,0,0,1-1.694.715" transform="translate(-1478.476 469.02)" fill="url(#linear-gradient-8)"/>
      </g>
    </g>
    <path id="path700" d="M1481.437-463.713c-2.768,2.014-3.073-.731-3.073-.731l-.105-.909c3-3.522,5.325-3.745,5.325-3.745A5.7,5.7,0,0,1,1481.437-463.713Zm2.736-6.492s-2.894.243-6.83,4.793l.074,1.269.032-.021s.4,3.7,4.125.99a6.86,6.86,0,0,0,2.6-7.031" transform="translate(-3483.257 1162.301)" fill="#492e50"/>
    <path id="path702" d="M1475.67-462.131l2.242-1.457-.074-1.381-2.242,1.457.074,1.381" transform="translate(-3482.889 1161.197)" fill="#492e50"/>
    <path id="path704" d="M1485.831-469.217l.4-.258a.969.969,0,0,0,.358-.794c-.011-.3-.2-.425-.421-.284l-.389.258a.975.975,0,0,0-.368.794c.021.3.211.425.421.284" transform="translate(-3484.956 1162.386)" fill="#492e50"/>
    <path id="path706" d="M1467.484-457.285l.4-.258a.968.968,0,0,0,.358-.794c-.01-.3-.2-.425-.421-.284l-.4.258a.966.966,0,0,0-.358.794c.01.3.2.425.421.284" transform="translate(-3481.091 1159.872)" fill="#492e50"/>
    <path id="path708" d="M1468.476-459.194a9.7,9.7,0,0,1,5.346-3.2v.984a5.584,5.584,0,0,1-2.8,4.551C1468.223-455.247,1468.476-459.194,1468.476-459.194Zm2.473,3.013a7.515,7.515,0,0,0,3.757-6.123l.032-.019-.063-1.268a12.453,12.453,0,0,0-6.862,4.107s-.621,5.465,3.136,3.3" transform="translate(-3481.241 1160.907)" fill="#283c83"/>
    <path id="path710" d="M1474.552-460.123h0c.084-.135.095-.292.021-.35l-.842-.684c-.074-.058-.189,0-.274.138s-.095.292-.021.35l.831.683c.074.059.2,0,.284-.137" transform="translate(-3482.424 1160.399)" fill="#2e4085"/>
    <path id="path712" d="M1484.66-466.935h0c.084-.135.095-.292.021-.35l-.831-.683c-.074-.059-.2,0-.284.137s-.084.291-.01.35l.832.684c.074.059.2,0,.273-.138" transform="translate(-3484.554 1161.834)" fill="#feffff"/>
    <path id="path714" d="M1491.047-444.451l-2.273-10.125-6.178,4.156,1.863,9.219c.179,1.5,7.03.189,6.588-3.25" transform="translate(-3484.364 1159.008)" fill="#fab6a9"/>
    <path id="path716" d="M1482.845-474.1s5.483-5.18,7.093,5.176a18.288,18.288,0,0,1-7.82,17.8c-3.42,2.3-8.262.733-9-2.828-1.663-5.105-2.41-10-1.326-14.47-.884-4.293,2.326-3.2,7.43-4.247l3.62-1.437" transform="translate(-3481.981 1163.395)" fill="#fab6a9"/>
    <path id="path718" d="M1488.771-454.8s6.693-3.689,4.525-13.553c-2.336-10.674-12.114-8.262-17.712-7.966-2.473.132-4.22.033-6.388,2.636-1.968,2.367.842,6.605,4.147,6.411,1.3-.077,1.231,3.494,1.673,4.65.779,2.055,2.263,2.9,3.063,4.882.747,1.88,4.083,4.5,5.978,4.44,3.389-.113,4.715-1.5,4.715-1.5" transform="translate(-3481.403 1163.68)" fill="#5061ae"/>
    <path id="path720" d="M1467.694-456.979l9.272-.49a.61.61,0,0,0,.568-.631.606.606,0,0,0-.632-.567l-9.272.49a.6.6,0,0,0-.568.631.606.606,0,0,0,.631.567" transform="translate(-3481.091 1159.87)" fill="#283c83"/>
    <path id="path722" d="M1478.114-455.863c.116,1.727,1.2,3.065,2.442,2.987a1.6,1.6,0,0,0,.389-.074,3.018,3.018,0,0,0,1.652-3.2c-.105-1.727-1.2-3.065-2.431-2.987s-2.157,1.542-2.052,3.269" transform="translate(-3483.418 1159.969)" fill="#fab6a9"/>
    <path id="path724" d="M1449.031-413.554h0a2.622,2.622,0,0,0,1.621-3.317l-2.01-5.832a2.614,2.614,0,0,0-3.315-1.621,2.621,2.621,0,0,0-1.621,3.317l2,5.832a2.631,2.631,0,0,0,3.326,1.621" transform="translate(-3476.141 1152.664)" fill="#eea698"/>
    <path id="path726" d="M1493.832-425.155c-2.778,5.538-7.367,10.268-13.282,12.367-8.167,2.9-16.629-.642-23.175-5.58-2.936-2.211-.063-7.231,2.915-4.99,5.3,4,12.008,7.5,18.723,5,4.494-1.677,7.735-5.532,9.83-9.711,1.663-3.326,6.652-.4,4.989,2.916" transform="translate(-3478.792 1153.733)" fill="#eea698"/>
    <path id="path728" d="M1483.534-361.29c-3.831,11.287-4.2,23.414-3.831,35.226.274,8.786,1.652,17.646,1.442,26.434-.147,5.769-9.125,5.792-8.988,0,.221-9.05-1.21-18.171-1.463-27.221-.326-12.292.189-25.09,4.189-36.827,1.842-5.441,10.524-3.106,8.651,2.388" transform="translate(-3481.839 1140.51)" fill="#364a9e"/>
    <path id="path730" d="M1506.317-374.133a133.913,133.913,0,0,0-3.673,22.557c-.421,4.434-.937,8.648-.463,13.069.937,8.92,2.589,18.01,2.536,27-.042,5.778-9.02,5.79-8.988,0,.063-9.133-1.642-18.362-2.578-27.43-.474-4.559.158-9.011.6-13.569.8-8.06,1.758-16.185,3.9-24.011,1.526-5.567,10.2-3.2,8.661,2.387" transform="translate(-3486.552 1143.233)" fill="#364a9e"/>
    <path id="path732" d="M1494.618-363.635h0c-.832.929,2.736-3.592,1.663-2.948-2.221,1.342-14.692,9.814-17.281,9.857-3.136.052-1.305-2.978-3.641-5.072-2.21-1.986-2.736-5.214-2.947-8.18a5.115,5.115,0,0,1,.221-2.43,5.216,5.216,0,0,1,1.8-1.928c5.536-4.193,16.428-14.57,24.174-11.252,8.935,3.834-.021,17.5-3.989,21.952" transform="translate(-3482.209 1144.61)" fill="#364a9e"/>
    <path id="path734" d="M1500.424-442.553c1.642,2.114,1.452,3.421,1.368,6.308a6.445,6.445,0,0,1-4.7,6.027l-27.763,7.787s-1.6-10.682,3.884-13.9c2.947-1.732,7.525-4.5,11.114-6.691,5.283-3.214,12.324-4.418,16.1.466" transform="translate(-3481.522 1157.166)" fill="#6378c4"/>
    <path id="path736" d="M1502.243-390.864c1.768-.683,1.337-31.063-.253-47.841l-31.247,14.871c.158,14.283,1.958,25.554.253,42.959l31.247-9.989" transform="translate(-3481.866 1155.665)" fill="#6378c4"/>
    <path id="path738" d="M1481.5-366.087c7.725-2.816,15.081-5.9,19.407-11.2,2.115-1.225,1.852-3.386-.6-4.8s-6.2-1.57-8.314-.345l-19.4,11.2c-2.126,1.226-1.863,3.387.589,4.8s6.2,1.57,8.314.345" transform="translate(-3481.955 1143.984)" fill="#6378c4"/>
    <path id="path740" d="M1470.743-420.52l5.146-2.451c.21,13.924,1.916,25.107.242,42.2l.084-.027c-.042.966.652,2,2.021,2.789h0c2.452,1.414,6.2,1.569,8.314.344a88.561,88.561,0,0,0,10.577-4.46c-4.263,3.267-9.882,5.546-15.713,7.671-2.115,1.225-5.862,1.07-8.314-.345h0c-1.368-.794-2.063-1.823-2.021-2.79l-.084.027c1.7-17.405-.095-28.677-.253-42.959" transform="translate(-3481.866 1152.35)" fill="#5468bb"/>
    <path id="path742" d="M1478.756-439.289c7.167-1.079,12.019,3.429,13.724-6.9a2.293,2.293,0,0,0-3.094.678,7.145,7.145,0,0,1-6.736,2.548,2.268,2.268,0,0,0-2.189,1.025l-1.7,2.648" transform="translate(-3483.555 1157.312)" fill="#fff"/>
    <path id="path744" d="M1472.067-425.405c-.337,4.634-.316,9.494-1.926,13.911-1.5,4.121-3.421,9.4-6.83,12.345-9.03,7.79-15.3-9.438-17.155-15.267-1.137-3.553,4.441-5.074,5.568-1.537,1.253,3.918,2.642,8.855,5.652,11.861,1.431,1.436,1.874,1.246,3.157-.584,4.452-6.345,5.21-13.287,5.757-20.73.273-3.687,6.051-3.716,5.778,0" transform="translate(-3476.655 1153.448)" fill="#eea698"/>
    <path id="path746" d="M1476.143-426.194c-1.747,14.778-6.409,24.179-12.861,28.959-3.4,1.88-6.578-3.477-5.273-6.712,6.42-5.716,8.683-14.63,9.293-24.8a4.661,4.661,0,0,1,5.525-2.583,4.359,4.359,0,0,1,3.315,5.141" transform="translate(-3479.121 1154.146)" fill="#7284cb"/>
    <path id="path748" d="M1458.136-399.619c-.537,2.274-1.231,7.309,2.568,9.133a2.146,2.146,0,0,0,1.8.008l1.158-.52a2.167,2.167,0,0,0,1-3.063,20.657,20.657,0,0,1-2.263-5.481,2.187,2.187,0,0,0-2.884-1.608l-.01.006a2.162,2.162,0,0,0-1.368,1.524" transform="translate(-3479.121 1147.781)" fill="#fff"/>
    <path id="path750" d="M1448.626-416.052l6.262-4.671a1.109,1.109,0,0,0,.242-1.354l-6.136-12.452a.731.731,0,0,0-1.094-.369l-6.231,4.543a1.109,1.109,0,0,0-.253,1.353l6.1,12.394c.158.314.316.353.631.429l.474.126" transform="translate(-3475.663 1154.89)" fill="#a4ccee"/>
    <path id="path752" d="M1447.907-428.645s7.472,7.043,7.23,6.567L1449-434.959l-.589-.06a.647.647,0,0,0-.505.12l-6.23,4.543a.927.927,0,0,0-.347.583l6.578,1.128" transform="translate(-3475.67 1154.89)" fill="#a4ccee"/>
    <path id="path754" d="M1449.422-416.113l6.209-4.54a1.089,1.089,0,0,0,.231-1.351l-6.135-12.453a.73.73,0,0,0-1.095-.37l-6.2,4.54a1.1,1.1,0,0,0-.231,1.35l6.146,12.453a.712.712,0,0,0,1.073.371" transform="translate(-3475.827 1154.875)" fill="#283c83"/>
    <path id="path756" d="M1442.5-426.112l.358.711-.063.063.01-.007-.137-.12-.347-.711.042-.06v.006l.137.118" transform="translate(-3475.878 1153.038)" fill="#3f3d6b"/>
    <path id="path758" d="M1443.279-424.535l.347.711-.063.063.011-.007-.126-.12-.358-.711.042-.06v.006l.147.118" transform="translate(-3476.041 1152.705)" fill="#3f3d6b"/>
    <path id="path760" d="M1448.729-417.806l6.115-4.459-5.378-10.985-6.083,4.432,5.431,10.7-.084.316" transform="translate(-3476.103 1154.516)" fill="#e0f0fb"/>
    <path id="path762" d="M1445.49-430.436l1.926-1.4.042-.245-.2-.067-1.915,1.4-.053.245.2.067" transform="translate(-3476.504 1154.284)" fill="#877ec7"/>
    <path id="path764" d="M1446.99-415.281l-.747-1.557c.6-.017,1.295,2.439,1.284,1.942l-.021-6.941a1.012,1.012,0,0,0-1.115-.874,1.022,1.022,0,0,0-1.074.934l.095,3.427c.021.5.979,3.086,1.579,3.069" transform="translate(-3476.51 1152.295)" fill="#eea698"/>
    <path id="path766" d="M1685.762-561.411l-66.777-39.575a5.122,5.122,0,0,1-2.536-4.487l.758-44.962a2.88,2.88,0,0,1,4.357-2.359l66.419,39.36a5,5,0,0,1,2.473,4.391l-.758,45.5a2.6,2.6,0,0,1-3.936,2.13" transform="translate(-3512.563 1200.853)" fill="#fff"/>
    <path id="path768" d="M1685.625-561.548l.263-.443-66.777-39.575a4.609,4.609,0,0,1-2.284-3.958v-.073l.758-44.966a2.235,2.235,0,0,1,.726-1.62,2.452,2.452,0,0,1,1.642-.64,2.339,2.339,0,0,1,1.21.335l66.419,39.36a4.488,4.488,0,0,1,2.221,3.865v.1l-.758,45.48a1.935,1.935,0,0,1-.642,1.425,2.17,2.17,0,0,1-1.452.565,2.067,2.067,0,0,1-1.063-.295l-.263.443-.263.442a3.091,3.091,0,0,0,1.589.44,3.183,3.183,0,0,0,2.147-.837,2.966,2.966,0,0,0,.979-2.167l.758-45.5v-.091a5.52,5.52,0,0,0-2.726-4.75l-66.419-39.361a3.36,3.36,0,0,0-1.736-.478,3.474,3.474,0,0,0-2.336.91,3.227,3.227,0,0,0-1.063,2.362l-.758,44.962v.094a5.646,5.646,0,0,0,2.789,4.844l66.777,39.574.263-.442" transform="translate(-3512.425 1200.99)" fill="#e1eef9"/>
    <path id="path770" d="M1628.623-584.607l9.5-9.56a4.54,4.54,0,0,1,7.357,1.288l8.325,19.05,10.324-13.492a4.539,4.539,0,0,1,7.851,1.14l12.2,34.5-55.558-32.928" transform="translate(-3515.127 1188.7)" fill="#6378c4"/>
    <path id="path772" d="M1647.751-620.655c-.052,3.172-2.063,4.573-4.5,3.13s-4.357-5.183-4.3-8.355,2.063-4.573,4.5-3.13,4.357,5.184,4.3,8.355" transform="translate(-3517.301 1195.876)" fill="#f03798"/>
    <path id="path774" d="M1158.612-363.817c-13,0-26.042-2.969-35.894-8.878-18.889-11.328-18.592-29.181.663-39.876,9.266-5.145,21.23-7.7,33.258-7.7,12.967,0,26.009,2.967,35.808,8.844,18.888,11.328,20.913,28.584-.645,40.1-9.381,5.012-21.269,7.506-33.19,7.506" transform="translate(-3405.603 1151.78)" fill="#c9c5e8"/>
    <path id="path776" d="M1167.064-416.671c-17.939-10.758-47.3-11.245-65.592-1.089s-18.569,27.112-.63,37.87,46.985,11.254,65.61,1.3c20.474-10.938,18.551-27.326.613-38.084" transform="translate(-3401.142 1152.792)" fill="#5468bb"/>
    <path id="path778" d="M1166.269-430.8c-17.939-10.759-47.306-11.246-65.593-1.089s-18.569,27.112-.63,37.87,46.985,11.254,65.61,1.3c20.474-10.938,18.552-27.326.614-38.084" transform="translate(-3400.975 1155.769)" fill="#909fd8"/>
    <path id="path780" d="M1144.465-392.227,1130.1-400.52c-3.272-1.888-2.858-5.218.92-7.4l9.312-5.377c3.777-2.181,9.545-2.419,12.815-.531l14.364,8.293c3.271,1.888,2.856,5.218-.921,7.4l-9.312,5.377c-3.777,2.181-9.544,2.42-12.815.531" transform="translate(-3409.638 1150.692)" fill="#fff"/>
    <path id="path782" d="M1138.457-406.223l-.962-.556c-2.635-1.522-2.3-4.2.741-5.962l14.787-8.536c3.044-1.758,7.69-1.95,10.325-.428l.963.556c2.635,1.522,2.3,4.2-.742,5.961l-14.787,8.537c-3.043,1.758-7.689,1.95-10.325.428" transform="translate(-3411.286 1152.299)" fill="#fff"/>
    <path id="path784" d="M1113.959-409.768l-6.779-3.914c-1.272-.735-1.111-2.03.358-2.879l17.238-9.952a5.563,5.563,0,0,1,4.985-.206l6.78,3.914c1.272.735,1.111,2.03-.358,2.878l-17.238,9.952a5.561,5.561,0,0,1-4.986.207" transform="translate(-3405.093 1153.244)" fill="#fff"/>
    <path id="path786" d="M1280.552-293.97c-13.239,0-26.517-3.024-36.55-9.04-19.233-11.535-18.931-29.713.676-40.6,9.435-5.24,21.617-7.837,33.865-7.837,13.2,0,26.483,3.02,36.465,9,19.228,11.535,21.291,29.106-.663,40.833-9.549,5.1-21.654,7.644-33.792,7.643" transform="translate(-3431.1 1137.283)" fill="#c9c5e8"/>
    <path id="path788" d="M1287.108-347.435c-18.266-10.954-48.169-11.45-66.79-1.108s-18.909,27.606-.642,38.561,47.843,11.459,66.808,1.328c20.844-11.138,18.89-27.826.623-38.781" transform="translate(-3426.127 1138.238)" fill="#cd1b89"/>
    <path id="path790" d="M1286.3-361.824c-18.266-10.954-48.17-11.451-66.791-1.108s-18.908,27.606-.642,38.561,47.843,11.459,66.808,1.327c20.852-11.137,18.89-27.825.624-38.78" transform="translate(-3425.956 1141.269)" fill="#ed46ab"/>
    <path id="path792" d="M1242.135-351.479h0c.248-1.812,1.487-3.514,3.754-4.823,5.635-3.253,15.477-2.845,21.983.911,3.249,1.875,5.492,6.439-1.809,10.654,4.773-3.567,15.2-2.921,18.452-1.045,6.506,3.757,7.212,9.439,1.579,12.692a20.306,20.306,0,0,1-10.842,2.163h0c-.407-.022-17.182-.075-27.081-.1-3.719-.011-7.008-1.97-6.9-4.106l.815-15.5a5.068,5.068,0,0,1,.044-.839v0" transform="translate(-3433.523 1138.767)" fill="#fff"/>
  </g>
</svg>
