<svg xmlns="http://www.w3.org/2000/svg" width="20.995" height="23.995" viewBox="0 0 20.995 23.995">
  <path id="Icon_awesome-discord" data-name="Icon awesome-discord" d="M13.929,11.4a1.228,1.228,0,1,1-1.224-1.332A1.278,1.278,0,0,1,13.929,11.4Zm-5.6-1.332a1.336,1.336,0,0,0,0,2.663A1.278,1.278,0,0,0,9.55,11.4,1.27,1.27,0,0,0,8.326,10.066ZM21,2.471V23.995c-3.022-2.671-2.056-1.787-5.567-5.051l.636,2.22H2.459A2.465,2.465,0,0,1,0,18.692V2.471A2.465,2.465,0,0,1,2.459,0H18.536A2.465,2.465,0,0,1,21,2.471ZM17.576,13.845A16.066,16.066,0,0,0,15.848,6.85a5.933,5.933,0,0,0-3.371-1.26l-.168.192A7.985,7.985,0,0,1,15.3,7.306a10.194,10.194,0,0,0-8.962-.348c-.444.2-.708.348-.708.348A8.094,8.094,0,0,1,8.782,5.735l-.12-.144A5.933,5.933,0,0,0,5.291,6.85a16.066,16.066,0,0,0-1.728,6.994,4.35,4.35,0,0,0,3.659,1.824s.444-.54.8-1a3.731,3.731,0,0,1-2.1-1.416c.176.124.468.284.492.3a8.745,8.745,0,0,0,7.486.42,6.865,6.865,0,0,0,1.38-.708A3.786,3.786,0,0,1,13.113,14.7c.36.456.792.972.792.972A4.386,4.386,0,0,0,17.576,13.845Z" fill="#fff"/>
</svg>
