<svg xmlns="http://www.w3.org/2000/svg" width="24" height="23.995" viewBox="0 0 24 23.995">
  <path id="Icon_awesome-instagram" data-name="Icon awesome-instagram" d="M12,8.083a6.152,6.152,0,1,0,6.152,6.152A6.142,6.142,0,0,0,12,8.083Zm0,10.151a4,4,0,1,1,4-4,4.007,4.007,0,0,1-4,4Zm7.838-10.4A1.435,1.435,0,1,1,18.4,6.4,1.432,1.432,0,0,1,19.836,7.831ZM23.91,9.288A7.1,7.1,0,0,0,21.972,4.26a7.148,7.148,0,0,0-5.028-1.938c-1.981-.112-7.919-.112-9.9,0A7.137,7.137,0,0,0,2.017,4.255,7.124,7.124,0,0,0,.079,9.282c-.112,1.981-.112,7.919,0,9.9A7.1,7.1,0,0,0,2.017,24.21a7.157,7.157,0,0,0,5.028,1.938c1.981.112,7.919.112,9.9,0a7.1,7.1,0,0,0,5.028-1.938,7.148,7.148,0,0,0,1.938-5.028c.112-1.981.112-7.913,0-9.894Zm-2.559,12.02a4.049,4.049,0,0,1-2.281,2.281c-1.579.626-5.327.482-7.073.482s-5.5.139-7.073-.482a4.049,4.049,0,0,1-2.281-2.281c-.626-1.579-.482-5.327-.482-7.073s-.139-5.5.482-7.073A4.049,4.049,0,0,1,4.925,4.881C6.5,4.255,10.252,4.4,12,4.4s5.5-.139,7.073.482a4.049,4.049,0,0,1,2.281,2.281c.626,1.579.482,5.327.482,7.073S21.978,19.734,21.351,21.308Z" transform="translate(0.005 -2.238)" fill="#fff"/>
</svg>
