<svg xmlns="http://www.w3.org/2000/svg" width="77.636" height="61" viewBox="0 0 77.636 61">
  <g id="megaphone" transform="translate(-2.25 -5.625)">
    <path id="Path_2" data-name="Path 2" d="M29.245,10.083l-4,3.986a14.1,14.1,0,0,1,0,19.964l4,4a19.768,19.768,0,0,0,0-27.953Z" transform="translate(33.675 6.529)" fill="#585c65"/>
    <path id="Path_3" data-name="Path 3" d="M32.446,6.961l-3.934,3.934a25.1,25.1,0,0,1,0,35.456l3.934,3.934a30.625,30.625,0,0,0,0-43.324Z" transform="translate(38.464 1.957)" fill="#585c65"/>
    <path id="Path_4" data-name="Path 4" d="M52.159,23.665V5.625H46.614L29.977,19.489H7.8L2.25,22.261V41.67L7.8,44.443,21.659,66.625h8.318l-5.2-22.182h5.2L46.614,55.534h5.545V37.494C55.348,37.2,57.7,34.219,57.7,30.58S55.348,23.96,52.159,23.665Z" transform="translate(0 0)" fill="#585c65"/>
  </g>
</svg>
