<svg xmlns="http://www.w3.org/2000/svg" width="91.783" height="34" viewBox="0 0 91.783 34">
  <g id="quotes" transform="translate(-199.25 -1247.25)">
    <path id="Icon_awesome-quote-left" data-name="Icon awesome-quote-left" d="M33.661,18.5h-5.8V13.857A4.647,4.647,0,0,1,32.5,9.214h.58a1.737,1.737,0,0,0,1.741-1.741V3.991A1.737,1.737,0,0,0,33.08,2.25H32.5A11.6,11.6,0,0,0,20.893,13.857V31.268a3.483,3.483,0,0,0,3.482,3.482h9.286a3.483,3.483,0,0,0,3.482-3.482V21.982A3.483,3.483,0,0,0,33.661,18.5Zm-20.893,0h-5.8V13.857a4.647,4.647,0,0,1,4.643-4.643h.58a1.737,1.737,0,0,0,1.741-1.741V3.991A1.737,1.737,0,0,0,12.188,2.25h-.58A11.6,11.6,0,0,0,0,13.857V31.268A3.483,3.483,0,0,0,3.482,34.75h9.286a3.483,3.483,0,0,0,3.482-3.482V21.982A3.483,3.483,0,0,0,12.768,18.5Z" transform="translate(200 1245.75)" fill="none" stroke="#fff" stroke-width="1.5"/>
    <path id="Icon_awesome-quote-left-2" data-name="Icon awesome-quote-left" d="M3.482,18.5h5.8v4.643a4.647,4.647,0,0,1-4.643,4.643h-.58a1.737,1.737,0,0,0-1.741,1.741v3.482A1.737,1.737,0,0,0,4.063,34.75h.58A11.6,11.6,0,0,0,16.25,23.143V5.732A3.483,3.483,0,0,0,12.768,2.25H3.482A3.483,3.483,0,0,0,0,5.732v9.286A3.483,3.483,0,0,0,3.482,18.5Zm20.893,0h5.8v4.643a4.647,4.647,0,0,1-4.643,4.643h-.58a1.737,1.737,0,0,0-1.741,1.741v3.482a1.737,1.737,0,0,0,1.741,1.741h.58A11.6,11.6,0,0,0,37.143,23.143V5.732A3.483,3.483,0,0,0,33.661,2.25H24.375a3.483,3.483,0,0,0-3.482,3.482v9.286A3.483,3.483,0,0,0,24.375,18.5Z" transform="translate(253.14 1245.75)" fill="none" stroke="#fff" stroke-width="1.5"/>
  </g>
</svg>
